<?xml version="1.0" encoding="UTF-8"?>
<svg version="1.1" xmlns="http://www.w3.org/2000/svg" width="512" height="512">
<path d="M0 0 C1.91888031 0.00273422 1.91888031 0.00273422 3.87652588 0.00552368 C22.5903905 0.05041964 40.97843839 0.41780612 59.5 3.3125 C60.66402344 3.48942383 61.82804687 3.66634766 63.02734375 3.84863281 C95.0614928 8.83996013 126.30472083 17.02355389 155.5 31.3125 C156.30276367 31.70163574 157.10552734 32.09077148 157.93261719 32.49169922 C175.35900795 41.02315125 190.80159579 51.53979936 204.5 65.3125 C205.40492188 66.21742187 206.30984375 67.12234375 207.2421875 68.0546875 C223.30112425 84.89460597 231.65942519 105.38786445 231.64044189 128.49377441 C231.64489858 130.18948869 231.64489858 130.18948869 231.6494453 131.91945982 C231.65812128 135.70998592 231.65963963 139.50048039 231.66113281 143.29101562 C231.66522523 146.0080687 231.67076623 148.72511847 231.67617798 151.44216919 C231.68974166 158.82681428 231.69578328 166.21145392 231.70018864 173.59610939 C231.70295503 178.21181477 231.70719317 182.82751807 231.71169281 187.44322205 C231.72388414 200.23548501 231.73418292 213.02774631 231.7375679 225.82001495 C231.73778747 226.63827829 231.73800703 227.45654162 231.73823325 228.29960081 C231.73845153 229.11977132 231.73866981 229.93994183 231.7388947 230.78496599 C231.73933816 232.44681327 231.73978472 234.10866054 231.74023438 235.77050781 C231.7404558 236.59483336 231.74067723 237.41915892 231.74090537 238.26846403 C231.74484959 251.61202708 231.7622927 264.9555354 231.7855939 278.29907733 C231.80935167 292.01542757 231.8217718 305.73175041 231.82293582 319.44812155 C231.82385023 327.14251277 231.82954304 334.83683272 231.84775543 342.53120422 C231.86321645 349.08608294 231.8682418 355.64086835 231.86001733 362.19576186 C231.85613154 365.53528991 231.85859627 368.87447891 231.87107468 372.21400833 C231.98223934 403.83041754 224.67876509 426.66383613 202.25 449.875 C151.06016876 499.79039561 69.40778851 512.82735054 1 512.625 C-0.91888031 512.62226578 -0.91888031 512.62226578 -2.87652588 512.61947632 C-21.59371475 512.57457238 -39.97413655 512.19442594 -58.5 509.3125 C-59.64807129 509.14089355 -60.79614258 508.96928711 -61.97900391 508.79248047 C-105.61691549 502.11704328 -150.71907233 489.1259008 -186.5 462.3125 C-187.51449219 461.55710937 -188.52898437 460.80171875 -189.57421875 460.0234375 C-209.51201032 444.38037707 -226.69130165 423.32758067 -230.28595114 397.48141301 C-230.7278815 393.00342373 -230.6441456 388.50656575 -230.64044189 384.01097107 C-230.64341302 382.87964046 -230.64638414 381.74830985 -230.6494453 380.5826965 C-230.65811041 376.79527647 -230.6596387 373.00788813 -230.66113281 369.22045898 C-230.66522672 366.50325841 -230.67076715 363.78606114 -230.67617798 361.06886292 C-230.68973275 353.68840914 -230.69578169 346.30796082 -230.70018864 338.92749667 C-230.70295616 334.31396352 -230.70719446 329.70043245 -230.71169281 325.08690071 C-230.72388225 312.29888637 -230.73418188 299.51087369 -230.7375679 286.72285366 C-230.73778747 285.90512545 -230.73800703 285.08739724 -230.73823325 284.24488938 C-230.73845153 283.42526697 -230.73866981 282.60564456 -230.7388947 281.76118511 C-230.73933816 280.10047432 -230.73978472 278.43976353 -230.74023438 276.77905273 C-230.7404558 275.95529268 -230.74067723 275.13153263 -230.74090537 274.28281016 C-230.74485035 260.9457772 -230.76229665 247.60879899 -230.7855939 234.27178716 C-230.80935142 220.55992531 -230.82177177 206.84809087 -230.82293582 193.13620812 C-230.82385016 185.44518523 -230.82954147 177.75423367 -230.84775543 170.06323051 C-230.86321602 163.5120358 -230.868242 156.96093445 -230.86001733 150.40972494 C-230.8561316 147.07221514 -230.85859613 143.73504459 -230.87107468 140.39753342 C-230.93343808 122.67174338 -230.27685212 107.575205 -222.5 91.3125 C-222.05785156 90.38695313 -221.61570312 89.46140625 -221.16015625 88.5078125 C-211.97295317 70.54059539 -196.078288 56.37772524 -179.5 45.3125 C-178.93152344 44.93174316 -178.36304688 44.55098633 -177.77734375 44.15869141 C-126.03722098 10.11044936 -60.74310438 -0.17967837 0 0 Z " fill="#F78329" transform="translate(255.5,-0.3125)"/>
<path d="M0 0 C1.07792313 -0.00570007 2.15584625 -0.01140015 3.26643372 -0.01727295 C5.53788291 -0.02665491 7.80934529 -0.03322957 10.08081055 -0.03710938 C13.46624196 -0.04672366 16.85104087 -0.07777602 20.23632812 -0.109375 C35.47812244 -0.1837066 50.25622112 0.99330735 65.33203125 3.203125 C66.10880219 3.31497131 66.88557312 3.42681763 67.68588257 3.54205322 C72.07879879 4.1815256 76.45681411 4.89026519 80.83203125 5.640625 C82.73686279 5.9658313 82.73686279 5.9658313 84.68017578 6.29760742 C126.33207474 13.53805588 178.80958061 29.27029746 205.18237305 65.1184082 C214.88040956 79.01364123 217.96447857 91.48429653 216.33203125 108.203125 C212.49323902 127.56017211 195.79729402 143.13361381 180.06640625 153.79296875 C150.21233302 173.37187022 115.72042008 184.41420511 80.76953125 190.515625 C80.07719391 190.63891174 79.38485657 190.76219849 78.67153931 190.88922119 C58.43333056 194.44693366 38.09878303 195.53305715 17.57519531 195.40893555 C14.43676675 195.390506 11.29863381 195.38842836 8.16015625 195.38867188 C-9.31889451 195.36034056 -26.44933029 194.7344729 -43.73046875 192.015625 C-44.43552551 191.90641724 -45.14058228 191.79720947 -45.86700439 191.68469238 C-87.77281997 185.14479737 -129.38039942 172.26327557 -162.66796875 145.203125 C-164.19744141 143.97916016 -164.19744141 143.97916016 -165.7578125 142.73046875 C-175.87062263 133.94793431 -186.10131462 120.04353043 -188.06811523 106.43432617 C-188.23814536 103.55330173 -188.27452181 100.71372098 -188.23046875 97.828125 C-188.22023682 96.81661377 -188.21000488 95.80510254 -188.19946289 94.76293945 C-187.98002921 87.04173325 -186.78963399 80.84996237 -182.66796875 74.203125 C-182.14847656 73.35105469 -181.62898438 72.49898438 -181.09375 71.62109375 C-170.29232262 55.23011653 -155.61613461 43.61009469 -138.66796875 34.203125 C-138.04631836 33.85121094 -137.42466797 33.49929687 -136.78417969 33.13671875 C-127.6928283 28.00121854 -118.45899796 23.83248713 -108.66796875 20.203125 C-107.42696411 19.73036133 -107.42696411 19.73036133 -106.16088867 19.24804688 C-99.68297564 16.82062875 -93.18633746 14.89001941 -86.48046875 13.203125 C-85.11051758 12.85121094 -85.11051758 12.85121094 -83.71289062 12.4921875 C-81.77595622 11.99628964 -79.83756562 11.50605371 -77.89794922 11.02075195 C-75.59068374 10.43669813 -73.28805485 9.83420177 -70.98876953 9.21948242 C-61.7797191 6.78312301 -52.60381891 5.09668793 -43.16650391 3.82006836 C-40.90387421 3.51371665 -38.64335368 3.19441504 -36.3828125 2.87304688 C-24.25029765 1.1784797 -12.26042476 0.05225818 0 0 Z " fill="#F2DBC8" transform="translate(241.66796875,27.796875)"/>
<path d="M0 0 C2 0 2 0 4.125 2.0625 C4.79789063 2.75472656 4.79789063 2.75472656 5.484375 3.4609375 C26.5108449 24.812559 57.75366746 38.49506031 86 47 C87.23492187 47.39445312 88.46984375 47.78890625 89.7421875 48.1953125 C102.93863923 52.34337749 116.41035807 55.45228093 130 58 C130.66030212 58.12435425 131.32060425 58.2487085 132.00091553 58.37683105 C155.07275669 62.6475717 178.03528098 63.44357888 201.4375 63.375 C202.11475254 63.37315453 202.79200508 63.37130905 203.48978043 63.36940765 C223.66139649 63.30314918 243.47283746 62.8063413 263.4375 59.8125 C264.170896 59.70362457 264.90429199 59.59474915 265.65991211 59.48257446 C279.31658033 57.43543886 292.6871203 54.70290598 306 51 C307.05590332 50.70754395 308.11180664 50.41508789 309.19970703 50.11376953 C339.67589443 41.52514981 369.83767087 29.39298825 394.453125 9.0546875 C396.65731573 7.27646001 398.89142978 5.56706096 401.15917969 3.87158203 C401.87869812 3.33324738 402.59821655 2.79491272 403.33953857 2.24026489 C403.88749084 1.83097748 404.43544312 1.42169006 405 1 C405.13989775 10.91069253 405.24607158 20.82114472 405.31087303 30.73262882 C405.34199718 35.33651523 405.38411673 39.93971914 405.45263672 44.54321289 C405.51851397 48.99775699 405.55384768 53.45165065 405.56926346 57.90664482 C405.58022876 59.59412291 405.60163638 61.28157116 405.63438034 62.96876717 C405.99424867 82.30590658 399.60144109 95.91248455 386.35766602 110.13989258 C378.21242813 118.59041908 369.02771986 124.97330836 359 131 C358.38608398 131.37318359 357.77216797 131.74636719 357.13964844 132.13085938 C330.37852156 148.13050113 298.78969285 156.4335726 268.29882812 161.44091797 C266.37619794 161.76676337 264.4552845 162.10384108 262.53973389 162.4690094 C243.70924411 166.03819466 224.65559479 166.34897534 205.54052734 166.31567383 C201.76760885 166.31251474 197.99547873 166.33608448 194.22265625 166.36132812 C137.6111707 166.50726783 71.64288418 154.46382577 27 117 C26.10796875 116.27167969 25.2159375 115.54335938 24.296875 114.79296875 C14.72406636 106.64433563 7.29105458 96.87087361 3 85 C2.7523439 84.38437195 2.50468781 83.7687439 2.24952698 83.13446045 C-0.73934015 74.77168965 -0.37992328 66.36173552 -0.29296875 57.6171875 C-0.28736317 55.94996525 -0.28309762 54.28273802 -0.28010559 52.61550903 C-0.26873248 48.25893147 -0.23933159 43.90266106 -0.20599365 39.54620361 C-0.17512893 35.08813632 -0.16156544 30.63001868 -0.14648438 26.171875 C-0.11445348 17.4477768 -0.0633501 8.72392677 0 0 Z " fill="#F1D3C2" transform="translate(53,187)"/>
<path d="M0 0 C1.26088739 0.92989261 2.51956698 1.86277924 3.77734375 2.796875 C4.47851318 3.31604492 5.17968262 3.83521484 5.90209961 4.37011719 C7.88747632 5.91257907 9.72620519 7.53468974 11.5625 9.25 C37.68098186 32.12859385 72.93874109 44.34522018 106 53 C106.88316895 53.23170898 107.76633789 53.46341797 108.67626953 53.70214844 C121.71402286 57.02564086 134.93154643 58.96775374 148.25 60.75 C149.03916809 60.8570929 149.82833618 60.96418579 150.64141846 61.07452393 C167.4543475 63.32998621 184.22409003 64.19850377 201.1875 64.1875 C202.18342163 64.18759064 202.18342163 64.18759064 203.19946289 64.18768311 C231.10889946 64.15226504 258.70104289 61.93410758 286 56 C286.83128418 55.82098145 287.66256836 55.64196289 288.51904297 55.45751953 C329.34500647 46.5484471 371.49286879 31.90882095 402.3125 2.546875 C404 1 404 1 405 1 C405.09310537 10.8322226 405.16396921 20.66433853 405.20724869 30.49691391 C405.22803159 35.06369464 405.25617696 39.63017146 405.30175781 44.19677734 C405.34555031 48.61236769 405.36920683 53.02766763 405.37950897 57.44345856 C405.38684091 59.11940322 405.40115674 60.79533387 405.42292023 62.47115326 C405.66845974 82.18048068 399.54197816 96.46169011 386 111 C377.8943248 118.89006969 368.75318759 125.32360593 359 131 C358.31228516 131.4007373 357.62457031 131.80147461 356.91601562 132.21435547 C336.25707054 144.05579646 313.94898977 151.05011118 291 157 C290.23703613 157.20463867 289.47407227 157.40927734 288.68798828 157.62011719 C275.01190787 161.2811282 261.02334434 163.19013171 247 165 C246.08637695 165.12149414 245.17275391 165.24298828 244.23144531 165.36816406 C213.64616024 169.26549023 181.48108879 168.21404403 151 164 C150.13810059 163.88253418 149.27620117 163.76506836 148.38818359 163.64404297 C144.00341851 163.0251127 139.6525299 162.29193073 135.30566406 161.44775391 C133.65292565 161.12679645 131.99839244 160.81502837 130.34277344 160.50927734 C88.4210139 152.73242473 38.53522888 136.97819415 11.5 101.4375 C7.96432477 96.25680535 5.1709237 90.88374019 3 85 C2.75121094 84.38323898 2.50242188 83.76647797 2.24609375 83.13102722 C-0.73934707 74.76951771 -0.37990316 66.35971311 -0.29296875 57.6171875 C-0.28736317 55.94996525 -0.28309762 54.28273802 -0.28010559 52.61550903 C-0.26873248 48.25893147 -0.23933159 43.90266106 -0.20599365 39.54620361 C-0.17512893 35.08813632 -0.16156544 30.63001868 -0.14648438 26.171875 C-0.11445348 17.4477768 -0.0633501 8.72392677 0 0 Z " fill="#F0CDBE" transform="translate(53,317)"/>
</svg>
